<?xml version="1.0" encoding="UTF-8"?>
<svg id="Calque_1" data-name="Calque 1" xmlns="http://www.w3.org/2000/svg" viewBox="0 0 433.36 432.51">
  <defs>
    <style>
      .cls-1 {
        fill: #f5b1d0;
      }
    </style>
  </defs>
  <path class="cls-1" d="M330.57,265.72c-1.42-119.35-184.99-81.86-185.8-149.98-.32-26.86,25.84-44.09,56.67-44.45,34.32-.41,60.41,19.67,60.74,47.03l60.68-.73c-.68-57.67-52.92-100.33-121.05-99.52-66.15.78-118.37,41.19-117.63,102.86,1.34,113.57,174.34,85.59,184.81,146.45l61.6-.59c0-.36,0-.71,0-1.07Z"/>
  <line class="cls-1" x1="277.04" y1="315.3" x2="270.74" y2="315.36"/>
  <path class="cls-1" d="M330.58,308.11c.14,63.54-54.33,105.52-123.06,106.33-62.67.74-112.22-33.23-124.58-81.31h64.56c10.79,17.26,33.25,28.41,59.87,28.1,34.83-.41,62.44-19.66,62.11-47.01-.02-1.92-.18-3.75-.5-5.52l61.6-.59Z"/>
  <circle class="cls-1" cx="298.89" cy="287.48" r="15.9"/>
</svg>